<svg width="256" height="192" viewBox="0 0 256 192" fill="none" xmlns="http://www.w3.org/2000/svg">
<path d="M234.667 0H21.3333C9.70667 0.426667 0.426667 9.70667 0 21.3333V170.667C0.426667 182.293 9.70667 191.573 21.3333 192H234.667C246.293 191.573 255.573 182.293 256 170.667V21.3333C255.804 15.7379 253.493 10.425 249.534 6.46598C245.575 2.50696 240.262 0.196325 234.667 0ZM234.667 170.667H21.3333V21.3333H234.667V170.667ZM149.333 149.333V136C149.333 118.293 113.707 109.333 96 109.333C78.2933 109.333 42.6667 118.293 42.6667 136V149.333H149.333ZM96 42.6667C88.9276 42.6667 82.1448 45.4762 77.1438 50.4772C72.1429 55.4781 69.3333 62.2609 69.3333 69.3333C69.3333 72.8353 70.0231 76.3029 71.3632 79.5382C72.7033 82.7736 74.6676 85.7133 77.1438 88.1895C82.1448 93.1905 88.9276 96 96 96C99.5019 96 102.97 95.3102 106.205 93.9701C109.44 92.63 112.38 90.6657 114.856 88.1895C117.332 85.7133 119.297 82.7736 120.637 79.5382C121.977 76.3029 122.667 72.8353 122.667 69.3333C122.667 65.8314 121.977 62.3638 120.637 59.1284C119.297 55.8931 117.332 52.9534 114.856 50.4772C112.38 48.0009 109.44 46.0367 106.205 44.6965C102.97 43.3564 99.5019 42.6667 96 42.6667ZM149.333 42.6667V53.3333H213.333V42.6667H149.333ZM149.333 64V74.6667H213.333V64H149.333ZM149.333 85.3333V96H192V85.3333H149.333Z" fill="#DED27C"/>
</svg>
